<svg xmlns="http://www.w3.org/2000/svg" width="1280" height="870" viewBox="0 0 1280 870"><rect width="100%" height="100%" rx="14" fill="#0d1117"/><g font-family="ui-monospace,SFMono-Regular,Menlo,monospace" font-size="15"><text x="28" y="50" fill="#7ee787">E2E Evidence  PASS</text><text x="28" y="72" fill="#c9d1d9">repository: qwen-code-dev-bot/oh-my-cli</text><text x="28" y="94" fill="#c9d1d9">pull request: #148</text><text x="28" y="116" fill="#c9d1d9">commit: 9a2fae6e3ebeee87549a64af5a891000aa235dca</text><text x="28" y="138" fill="#c9d1d9">mode: terminal</text><text x="28" y="160" fill="#c9d1d9"></text><text x="28" y="182" fill="#c9d1d9">$ npm run test:integration</text><text x="28" y="204" fill="#c9d1d9"> Test Files  46 passed (46)</text><text x="28" y="226" fill="#c9d1d9">      Tests  328 passed (328)</text><text x="28" y="248" fill="#c9d1d9">   Start at  05:05:16</text><text x="28" y="270" fill="#c9d1d9">   Duration  12.97s (transform 1.79s, setup 0ms, collect 4.62s, tests 161.52s, environment 15ms, prepare 6.54s)</text><text x="28" y="292" fill="#c9d1d9">&gt; oh-my-cli@0.1.0 test:desktop</text><text x="28" y="314" fill="#c9d1d9">&gt; npm run build &amp;&amp; timeout 30 xvfb-run -a electron --no-sandbox --disable-gpu scripts/test-desktop.mjs</text><text x="28" y="336" fill="#c9d1d9">&gt; oh-my-cli@0.1.0 build</text><text x="28" y="358" fill="#c9d1d9">&gt; tsc</text><text x="28" y="380" fill="#c9d1d9">&gt; oh-my-cli@0.1.0 postbuild</text><text x="28" y="402" fill="#c9d1d9">&gt; node scripts/build-desktop.mjs</text><text x="28" y="424" fill="#c9d1d9">Electron Xvfb interaction: starting</text><text x="28" y="446" fill="#c9d1d9">Electron Xvfb interaction: app ready</text><text x="28" y="468" fill="#c9d1d9">Electron Xvfb interaction: window loaded</text><text x="28" y="490" fill="#c9d1d9">Electron Xvfb interaction: PASS</text><text x="28" y="512" fill="#c9d1d9">exit=0 duration=21.091s</text><text x="28" y="534" fill="#c9d1d9"></text><text x="28" y="556" fill="#c9d1d9">$ npm run smoke</text><text x="28" y="578" fill="#c9d1d9">&gt; oh-my-cli@0.1.0 smoke</text><text x="28" y="600" fill="#c9d1d9">&gt; vitest run tests/smoke</text><text x="28" y="622" fill="#c9d1d9"> RUN  v3.2.7 /root/oh-my-cli</text><text x="28" y="644" fill="#c9d1d9"> ✓ tests/smoke/smoke.test.ts (3 tests) 631ms</text><text x="28" y="666" fill="#c9d1d9"> ✓ tests/smoke/docs-first-run.test.ts (2 tests) 1410ms</text><text x="28" y="688" fill="#c9d1d9">   ✓ smoke: first-run documentation commands &gt; runs every documented command without stale syntax  1398ms</text><text x="28" y="710" fill="#c9d1d9"> Test Files  2 passed (2)</text><text x="28" y="732" fill="#c9d1d9">      Tests  5 passed (5)</text><text x="28" y="754" fill="#c9d1d9">   Start at  05:05:37</text><text x="28" y="776" fill="#c9d1d9">   Duration  1.89s (transform 117ms, setup 0ms, collect 150ms, tests 2.04s, environment 0ms, prepare 164ms)</text><text x="28" y="798" fill="#c9d1d9">exit=0 duration=2.811s</text><text x="28" y="820" fill="#c9d1d9"></text></g></svg>